<svg xmlns="http://www.w3.org/2000/svg" viewBox="0 0 512 512">
  <circle cx="256" cy="256" r="256" fill="#25D366"/>
  <path fill="#fff" d="M367.2 144.8c-29.7-29.7-69.3-46.1-111.3-46.1-86.8 0-157.4 70.6-157.4 157.4 0 27.8 7.3 55 21.1 79l-22.4 81.8 83.7-22c23 12.5 48.9 19.1 75.1 19.1h.1c86.7 0 159.4-70.6 159.4-157.4 0-42-16.4-81.5-46.1-111.2zM256 387.6h-.1c-23.4 0-46.4-6.3-66.5-18.3l-4.8-2.8-49.7 13 13.3-48.4-3.1-5c-13.1-20.8-20-44.9-20-69.5 0-72.2 58.8-131 131.1-131 35 0 67.9 13.6 92.6 38.4 24.7 24.7 38.3 57.6 38.3 92.6 0 72.3-59 131-131.1 131zm71.9-98.1c-3.9-2-23.3-11.5-26.9-12.8-3.6-1.3-6.2-2-8.8 2-2.6 3.9-10.1 12.8-12.4 15.4-2.3 2.6-4.6 3-8.5 1-3.9-2-16.6-6.1-31.7-19.5-11.7-10.4-19.6-23.3-21.9-27.2-2.3-3.9-.2-6.1 1.7-8 1.8-1.8 3.9-4.6 5.9-6.9 2-2.3 2.6-3.9 3.9-6.5 1.3-2.6.7-4.9-.3-6.9-1-2-8.8-21.3-12.1-29.1-3.2-7.7-6.4-6.6-8.8-6.7h-7.5c-2.6 0-6.9 1-10.5 4.9-3.6 3.9-13.8 13.5-13.8 32.9s14.1 38.1 16.1 40.7c2 2.6 27.8 42.4 67.3 59.4 9.4 4.1 16.8 6.5 22.5 8.3 9.5 3 18.1 2.6 24.9 1.6 7.6-1.1 23.3-9.5 26.6-18.7 3.3-9.2 3.3-17 2.3-18.7-1-1.6-3.6-2.6-7.5-4.6z"/>
</svg>